TITLE: test
FCM: NON-DROP FRAME

000    EdlReel    V C     09:48:23:13 09:48:29:11 00:00:00:01 00:00:05:23
* FROM CLIP NAME: A001_C004V01553F0001.mov

001    EdlReel    V C     09:25:00:19 09:25:01:10 00:00:05:23 00:00:06:15
* FROM CLIP NAME: A001_C002V015CAE0001.mov

002    EdlReel    V C     14:24:41:15 14:24:43:13 00:00:06:15 00:00:08:14
* FROM CLIP NAME: B004_C002V0198120001.mov

003    EdlReel    V C     18:33:13:10 18:33:16:17 00:00:08:14 00:00:11:22
* FROM CLIP NAME: A009_C004V0120140001.mov

004    EdlReel    V C     10:19:37:00 10:19:37:16 00:00:11:22 00:00:12:14
* FROM CLIP NAME: B001_C006_V019FE0001.mov

005    EdlReel    V C     11:50:14:23 11:50:15:14 00:00:12:14 00:00:13:05
* FROM CLIP NAME: B002_C007V0172750001.mov

006    EdlReel    V C     11:10:04:22 11:10:05:13 00:00:13:05 00:00:13:21
* FROM CLIP NAME: A002_C003V01F2400001.mov

007    EdlReel    V C     14:54:14:03 14:54:28:14 00:00:13:21 00:00:28:09
* FROM CLIP NAME: B005_C002V014D780001.mov

008    EdlReel    V C     12:24:38:10 12:24:39:02 00:00:28:09 00:00:29:01
* FROM CLIP NAME: A003_C004V01BE070001.mov

009    EdlReel    V C     18:53:02:05 18:53:16:17 00:00:29:01 00:00:43:14
* FROM CLIP NAME: B009_C010V01DDC30001.mov

010    EdlReel    V C     09:21:27:19 09:21:28:11 00:00:43:14 00:00:44:06
* FROM CLIP NAME: A001_C001V0179CC0001.mov

011    EdlReel    V C     09:58:22:05 09:58:25:11 00:00:44:06 00:00:47:13
* FROM CLIP NAME: B001_C005V01B96C0001.mov

012    EdlReel    V C     18:35:18:10 18:35:19:01 00:00:47:13 00:00:48:04
* FROM CLIP NAME: A009_C005_V016CA0001.mov

013    EdlReel    V C     19:03:35:08 19:03:36:15 00:00:48:04 00:00:49:12
* FROM CLIP NAME: A009_C011V015A1D0001.mov

014    EdlReel    V C     09:59:05:04 09:59:06:11 00:00:49:12 00:00:50:20
* FROM CLIP NAME: A001_C005V01C4D80001.mov

015    EdlReel    V C     09:18:44:09 09:18:45:00 00:00:50:20 00:00:51:12
* FROM CLIP NAME: B001_C001V018FF30001.mov

016    EdlReel    V C     17:19:31:01 17:19:36:23 00:00:51:12 00:00:57:10
* FROM CLIP NAME: B008_C003V01DEEA0001.mov

017    EdlReel    V C     12:10:51:19 12:10:52:10 00:00:57:10 00:00:58:02
* FROM CLIP NAME: A003_C002V01AD340001.mov

018    EdlReel    V C     10:43:46:14 10:43:47:05 00:00:58:02 00:00:58:17
* FROM CLIP NAME: A002_C002V01A25F0001.mov

019    EdlReel    V C     12:29:03:16 12:29:04:07 00:00:58:17 00:00:59:09
* FROM CLIP NAME: A003_C005V01EFE20001.mov

020    EdlReel    V C     11:44:32:14 11:44:33:05 00:00:59:09 00:01:00:01
* FROM CLIP NAME: A002_C005V01B69F0001.mov

021    EdlReel    V C     18:33:02:21 18:33:03:12 00:01:00:01 00:01:00:17
* FROM CLIP NAME: B009_C005V01F7AE0001.mov

022    EdlReel    V C     15:37:53:14 15:38:08:02 00:01:00:17 00:01:15:05
* FROM CLIP NAME: A005_C005V01C4C70001.mov

023    EdlReel    V C     12:11:29:18 12:11:30:09 00:01:15:05 00:01:15:21
* FROM CLIP NAME: B003_C003V01918B0001.mov

024    EdlReel    V C     16:22:13:08 16:22:13:23 00:01:15:21 00:01:16:13
* FROM CLIP NAME: A007_C001V01984B0001.mov

025    EdlReel    V C     16:09:39:11 16:09:40:02 00:01:16:13 00:01:17:04
* FROM CLIP NAME: A006_C002_V01B570001.mov

026    EdlReel    V C     18:14:28:07 18:14:28:22 00:01:17:04 00:01:17:20
* FROM CLIP NAME: A009_C001V01D5500001.mov

027    EdlReel    V C     18:07:50:01 18:07:50:16 00:01:17:20 00:01:18:12
* FROM CLIP NAME: A008_C009V01DA310001.mov

028    EdlReel    V C     17:59:31:21 17:59:32:13 00:01:18:12 00:01:19:04
* FROM CLIP NAME: A008_C008V01F18B0001.mov

029    EdlReel    V C     14:55:32:00 14:55:35:21 00:01:19:04 00:01:23:01
* FROM CLIP NAME: A005_C001V01738B0001.mov

030    EdlReel    V C     15:26:11:22 15:26:12:13 00:01:23:01 00:01:23:17
* FROM CLIP NAME: A005_C004V01C9B90001.mov

031    EdlReel    V C     16:31:26:13 16:31:27:06 00:01:23:17 00:01:24:10
* FROM CLIP NAME: A007_C002V0138B00001.mov

032    EdlReel    V C     17:13:51:16 17:13:52:07 00:01:24:10 00:01:25:02
* FROM CLIP NAME: B008_C001_V015A50001.mov

033    EdlReel    V C     17:16:17:21 17:16:18:12 00:01:25:02 00:01:25:18
* FROM CLIP NAME: A008_C002V013A8E0001.mov

034    EdlReel    V C     12:26:02:00 12:26:03:21 00:01:25:18 00:01:27:16
* FROM CLIP NAME: B003_C005V012E470001.mov

035    EdlReel    V C     15:55:36:19 15:55:51:08 00:01:27:16 00:01:42:06
* FROM CLIP NAME: A006_C001V01B1420001.mov

036    EdlReel    V C     10:12:32:16 10:12:33:07 00:01:42:06 00:01:42:22
* FROM CLIP NAME: A001_C006V01469F0001.mov

037    EdlReel    V C     11:58:58:09 11:58:59:00 00:01:42:22 00:01:43:13
* FROM CLIP NAME: A003_C001_V0150E0001.mov

038    EdlReel    V C     12:21:58:19 12:22:00:02 00:01:43:13 00:01:44:21
* FROM CLIP NAME: B003_C004V0180E50001.mov

039    EdlReel    V C     11:55:25:15 11:55:26:06 00:01:44:21 00:01:45:13
* FROM CLIP NAME: B003_C001_V017290001.mov

040    EdlReel    V C     11:32:29:15 11:32:30:06 00:01:45:13 00:01:46:05
* FROM CLIP NAME: A002_C004V01F02C0001.mov

041    EdlReel    V C     17:22:11:21 17:22:12:12 00:01:46:05 00:01:46:20
* FROM CLIP NAME: A008_C004_V01BA40001.mov

042    EdlReel    V C     18:17:08:00 18:17:09:23 00:01:46:20 00:01:48:20
* FROM CLIP NAME: A009_C002V01E0330001.mov

043    EdlReel    V C     10:28:40:15 10:28:41:06 00:01:48:20 00:01:49:12
* FROM CLIP NAME: A001_C007V01E5880001.mov

044    EdlReel    V C     15:43:35:13 15:43:36:04 00:01:49:12 00:01:50:04
* FROM CLIP NAME: B005_C004V0156E00001.mov

045    EdlReel    V C     15:31:27:21 15:31:28:12 00:01:50:04 00:01:50:19
* FROM CLIP NAME: B005_C003_V014820001.mov

046    EdlReel    V C     17:19:01:07 17:19:01:22 00:01:50:19 00:01:51:11
* FROM CLIP NAME: A008_C003V0171A30001.mov

047    EdlReel    V C     17:25:39:08 17:25:40:15 00:01:51:11 00:01:52:19
* FROM CLIP NAME: A008_C005V0155F40001.mov

048    EdlReel    V C     17:39:24:07 17:39:25:14 00:01:52:19 00:01:54:03
* FROM CLIP NAME: A008_C006V01D9080001.mov

049    EdlReel    V C     17:41:12:04 17:41:13:11 00:01:54:03 00:01:55:10
* FROM CLIP NAME: A008_C007V01ACC10001.mov

050    EdlReel    V C     18:35:00:14 18:35:01:21 00:01:55:10 00:01:56:18
* FROM CLIP NAME: B009_C006V01F6750001.mov

051    EdlReel    V C     12:08:09:07 12:08:09:22 00:01:56:18 00:01:57:10
* FROM CLIP NAME: B003_C002V01D3740001.mov

052    EdlReel    V C     18:40:26:10 18:40:40:22 00:01:57:10 00:02:11:22
* FROM CLIP NAME: A009_C007V015AE60001.mov

053    EdlReel    V C     18:36:48:00 18:36:48:15 00:02:11:22 00:02:12:14
* FROM CLIP NAME: A009_C006V01D5080001.mov

054    EdlReel    V C     18:54:52:05 18:55:06:16 00:02:12:14 00:02:27:01
* FROM CLIP NAME: A009_C008V0182270001.mov

055    EdlReel    V C     12:14:35:04 12:14:35:20 00:02:27:01 00:02:27:18
* FROM CLIP NAME: A003_C003V01C52C0001.mov

056    EdlReel    V C     18:57:21:09 18:57:22:01 00:02:27:18 00:02:28:10
* FROM CLIP NAME: A009_C009_V019380001.mov

057    EdlReel    V C     19:13:03:21 19:13:13:00 00:02:28:10 00:02:37:14
* FROM CLIP NAME: A009_C012V014BC40001.mov

058    EdlReel    V C     19:02:00:21 19:02:01:13 00:02:37:14 00:02:38:07
* FROM CLIP NAME: A009_C010V01629D0001.mov

059    EdlReel    V C     10:34:41:14 10:34:46:04 00:02:38:07 00:02:42:22
* FROM CLIP NAME: B002_C001_V01C8D0001.mov

060    EdlReel    V C     10:41:01:11 10:41:02:18 00:02:42:22 00:02:44:05
* FROM CLIP NAME: B002_C003V0136CA0001.mov

061    EdlReel    V C     11:30:45:23 11:31:00:11 00:02:44:05 00:02:58:17
* FROM CLIP NAME: B002_C005V017A5F0001.mov

062    EdlReel    V C     11:42:32:09 11:42:46:21 00:02:58:17 00:03:13:05
* FROM CLIP NAME: B002_C006V01C9A50001.mov

063    EdlReel    V C     15:59:10:00 15:59:24:12 00:03:13:05 00:03:27:18
* FROM CLIP NAME: B006_C001V018D660001.mov

064    EdlReel    V C     16:13:27:00 16:13:28:07 00:03:27:18 00:03:29:01
* FROM CLIP NAME: B006_C002V01BED60001.mov

065    EdlReel    V C     16:19:33:16 16:19:34:23 00:03:29:01 00:03:30:09
* FROM CLIP NAME: B007_C001V01BB120001.mov

066    EdlReel    V C     16:24:58:03 16:25:00:10 00:03:30:09 00:03:32:17
* FROM CLIP NAME: B007_C002V014F120001.mov

067    EdlReel    V C     17:16:20:16 17:16:21:23 00:03:32:17 00:03:34:00
* FROM CLIP NAME: B008_C002V01198F0001.mov

068    EdlReel    V C     17:22:45:21 17:22:47:04 00:03:34:00 00:03:35:08
* FROM CLIP NAME: B008_C004V01157F0001.mov

069    EdlReel    V C     17:36:44:22 17:36:53:10 00:03:35:08 00:03:43:20
* FROM CLIP NAME: B008_C005V0179A50001.mov

070    EdlReel    V C     18:05:12:16 18:05:13:18 00:03:43:20 00:03:44:23
* FROM CLIP NAME: B008_C008V0164480001.mov

071    EdlReel    V C     18:11:51:16 18:11:52:21 00:03:44:23 00:03:46:05
* FROM CLIP NAME: B009_C001V017B5D0001.mov

072    EdlReel    V C     18:14:25:22 18:14:27:01 00:03:46:05 00:03:47:08
* FROM CLIP NAME: B009_C002_V018F70001.mov

073    EdlReel    V C     18:17:08:22 18:17:10:09 00:03:47:08 00:03:48:19
* FROM CLIP NAME: B009_C003V0182420001.mov

