TITLE: test-previz
FCM: NON-DROP FRAME

000    EdlReel    V C     00:00:00:00 00:00:05:22 00:00:00:01 00:00:05:23
* FROM CLIP NAME: tai100_100_000_girl_begin_run_pre_003_cu.mov

001    EdlReel    V C     00:00:00:00 00:00:01:07 00:00:05:23 00:00:07:07
* FROM CLIP NAME: tai100_100_000_girl_begin_run_pre_003_fullbody.mov

002    EdlReel    V C     00:00:05:22 00:00:19:10 00:00:07:07 00:00:07:23
* FROM CLIP NAME: tai100_100_000_girl_begin_run_pre_003_cu.mov

003    EdlReel    V C     00:00:01:07 00:00:05:14 00:00:07:23 00:00:09:06
* FROM CLIP NAME: tai100_100_000_girl_begin_run_pre_003_fullbody.mov

004    EdlReel    V C     00:00:00:00 00:00:01:07 00:00:09:06 00:00:10:14
* FROM CLIP NAME: tai100_100_000_girl_begin_run_pre_003_high.mov

005    EdlReel    V C     00:00:05:14 00:00:18:01 00:00:10:14 00:00:11:05
* FROM CLIP NAME: tai100_100_000_girl_begin_run_pre_003_fullbody.mov

006    EdlReel    V C     00:00:01:07 00:00:18:19 00:00:11:05 00:00:25:18
* FROM CLIP NAME: tai100_100_000_girl_begin_run_pre_003_high.mov

007    EdlReel    V C     00:00:18:01 00:00:54:22 00:00:25:18 00:00:26:10
* FROM CLIP NAME: tai100_100_000_girl_begin_run_pre_003_fullbody.mov

008    EdlReel    V C     00:00:00:00 00:00:14:12 00:00:26:10 00:00:40:23
* FROM CLIP NAME: tai100_100_000_girl_begin_run_pre_003_med.mov

009    EdlReel    V C     00:00:18:19 00:00:57:21 00:00:40:23 00:00:41:14
* FROM CLIP NAME: tai100_100_000_girl_begin_run_pre_003_high.mov

010    EdlReel    V C     00:00:00:00 00:00:14:12 00:00:41:14 00:00:56:02
* FROM CLIP NAME: tai100_100_000_girl_begin_run_pre_003_pov.mov

011    EdlReel    V C     00:00:14:12 00:00:44:17 00:00:56:02 00:00:56:18
* FROM CLIP NAME: tai100_100_000_girl_begin_run_pre_003_med.mov

012    EdlReel    V C     00:00:00:00 00:00:00:15 00:00:56:18 00:00:57:10
* FROM CLIP NAME: tai100_100_000_girl_guy_together_pre_004_cam1.mov

013    EdlReel    V C     00:00:00:00 00:00:14:12 00:00:57:10 00:01:11:22
* FROM CLIP NAME: tai100_100_000_girl_guy_together_pre_004_cam2.mov

014    EdlReel    V C     00:00:00:15 00:00:03:06 00:01:11:22 00:01:12:14
* FROM CLIP NAME: tai100_100_000_girl_guy_together_pre_004_cam1.mov

015    EdlReel    V C     00:00:14:12 00:00:51:21 00:01:12:14 00:01:20:12
* FROM CLIP NAME: tai100_100_000_girl_guy_together_pre_004_cam2.mov

016    EdlReel    V C     00:00:03:06 00:00:10:17 00:01:20:12 00:01:21:03
* FROM CLIP NAME: tai100_100_000_girl_guy_together_pre_004_cam1.mov

017    EdlReel    V C     00:00:00:00 00:00:01:07 00:01:21:03 00:01:22:11
* FROM CLIP NAME: tai100_100_000_girl_run_back_pre_003_cu.mov

018    EdlReel    V C     00:00:10:17 00:00:33:13 00:01:22:11 00:01:23:01
* FROM CLIP NAME: tai100_100_000_girl_guy_together_pre_004_cam1.mov

019    EdlReel    V C     00:00:01:07 00:00:05:16 00:01:23:01 00:01:24:10
* FROM CLIP NAME: tai100_100_000_girl_run_back_pre_003_cu.mov

020    EdlReel    V C     00:00:00:00 00:00:14:12 00:01:24:10 00:01:38:23
* FROM CLIP NAME: tai100_100_000_girl_run_back_pre_003_fullbody.mov

021    EdlReel    V C     00:00:05:16 00:00:18:08 00:01:38:23 00:01:39:14
* FROM CLIP NAME: tai100_100_000_girl_run_back_pre_003_cu.mov

022    EdlReel    V C     00:00:00:00 00:00:14:12 00:01:39:14 00:01:54:03
* FROM CLIP NAME: tai100_100_000_girl_run_back_pre_003_high.mov

023    EdlReel    V C     00:00:18:08 00:00:56:02 00:01:54:03 00:01:54:18
* FROM CLIP NAME: tai100_100_000_girl_run_back_pre_003_cu.mov

024    EdlReel    V C     00:00:00:00 00:00:14:12 00:01:54:18 00:02:09:07
* FROM CLIP NAME: tai100_100_000_girl_run_back_pre_003_med.mov

025    EdlReel    V C     00:00:14:12 00:00:44:16 00:02:09:07 00:02:09:22
* FROM CLIP NAME: tai100_100_000_girl_run_back_pre_003_fullbody.mov

026    EdlReel    V C     00:00:14:12 00:00:45:07 00:02:09:22 00:02:11:06
* FROM CLIP NAME: tai100_100_000_girl_run_back_pre_003_high.mov

027    EdlReel    V C     00:00:14:12 00:00:45:08 00:02:11:06 00:02:12:14
* FROM CLIP NAME: tai100_100_000_girl_run_back_pre_003_med.mov

028    EdlReel    V C     00:00:00:00 00:00:14:11 00:02:12:14 00:02:27:01
* FROM CLIP NAME: tai100_100_000_girl_run_back_pre_003_pov.mov

029    EdlReel    V C     00:00:00:00 00:00:11:21 00:02:27:01 00:02:38:23
* FROM CLIP NAME: tai100_100_000_girl_run_back_pre_003_superwide.mov

030    EdlReel    V C     00:00:14:11 00:00:44:12 00:02:38:23 00:02:39:14
* FROM CLIP NAME: tai100_100_000_girl_run_back_pre_003_pov.mov

031    EdlReel    V C     00:00:11:21 00:00:37:22 00:02:39:14 00:02:40:22
* FROM CLIP NAME: tai100_100_000_girl_run_back_pre_003_superwide.mov

032    EdlReel    V C     00:00:00:00 00:00:01:07 00:02:40:22 00:02:42:05
* FROM CLIP NAME: tai100_100_000_girl_run_back_pre_003_wide.mov

033    EdlReel    V C     00:00:00:00 00:00:01:07 00:02:42:05 00:02:43:13
* FROM CLIP NAME: tai100_100_000_guy_run_back_pre_003_cu.mov

034    EdlReel    V C     00:00:01:07 00:00:04:21 00:02:43:13 00:02:44:05
* FROM CLIP NAME: tai100_100_000_girl_run_back_pre_003_wide.mov

035    EdlReel    V C     00:00:01:07 00:00:05:14 00:02:44:05 00:02:45:13
* FROM CLIP NAME: tai100_100_000_guy_run_back_pre_003_cu.mov

036    EdlReel    V C     00:00:04:21 00:00:16:07 00:02:45:13 00:02:46:05
* FROM CLIP NAME: tai100_100_000_girl_run_back_pre_003_wide.mov

037    EdlReel    V C     00:00:05:14 00:00:29:08 00:02:46:05 00:02:58:02
* FROM CLIP NAME: tai100_100_000_guy_run_back_pre_003_cu.mov

038    EdlReel    V C     00:00:16:07 00:00:49:20 00:02:58:02 00:02:58:17
* FROM CLIP NAME: tai100_100_000_girl_run_back_pre_003_wide.mov

039    EdlReel    V C     00:00:00:00 00:00:14:12 00:02:58:17 00:03:13:05
* FROM CLIP NAME: tai100_100_000_guy_run_back_pre_003_fullbody.mov

040    EdlReel    V C     00:00:00:00 00:00:14:12 00:03:13:05 00:03:27:18
* FROM CLIP NAME: tai100_100_000_guy_run_back_pre_003_high.mov

041    EdlReel    V C     00:00:14:12 00:00:44:15 00:03:27:18 00:03:28:10
* FROM CLIP NAME: tai100_100_000_guy_run_back_pre_003_fullbody.mov

042    EdlReel    V C     00:00:14:12 00:00:45:08 00:03:28:10 00:03:29:17
* FROM CLIP NAME: tai100_100_000_guy_run_back_pre_003_high.mov

043    EdlReel    V C     00:00:00:00 00:00:01:07 00:03:29:17 00:03:31:01
* FROM CLIP NAME: tai100_100_000_guy_run_back_pre_003_med.mov

044    EdlReel    V C     00:00:00:00 00:00:01:03 00:03:31:01 00:03:32:04
* FROM CLIP NAME: tai100_100_000_guy_run_back_pre_003_pov.mov

045    EdlReel    V C     00:00:01:07 00:00:04:18 00:03:32:04 00:03:32:17
* FROM CLIP NAME: tai100_100_000_guy_run_back_pre_003_med.mov

046    EdlReel    V C     00:00:01:03 00:00:04:22 00:03:32:17 00:03:34:00
* FROM CLIP NAME: tai100_100_000_guy_run_back_pre_003_pov.mov

047    EdlReel    V C     00:00:04:18 00:00:15:16 00:03:34:00 00:03:34:16
* FROM CLIP NAME: tai100_100_000_guy_run_back_pre_003_med.mov

048    EdlReel    V C     00:00:04:22 00:00:17:02 00:03:34:16 00:03:36:00
* FROM CLIP NAME: tai100_100_000_guy_run_back_pre_003_pov.mov

049    EdlReel    V C     00:00:15:16 00:00:48:10 00:03:36:00 00:03:36:15
* FROM CLIP NAME: tai100_100_000_guy_run_back_pre_003_med.mov

050    EdlReel    V C     00:00:17:02 00:00:52:17 00:03:36:15 00:03:37:23
* FROM CLIP NAME: tai100_100_000_guy_run_back_pre_003_pov.mov

051    EdlReel    V C     00:00:00:00 00:00:01:07 00:03:37:23 00:03:39:06
* FROM CLIP NAME: tai100_100_000_guy_run_back_pre_003_superwide.mov

052    EdlReel    V C     00:00:00:00 00:00:14:00 00:03:39:06 00:03:53:07
* FROM CLIP NAME: tai100_100_000_guy_run_back_pre_003_wide.mov

